<svg xmlns="http://www.w3.org/2000/svg" viewBox="0 0 1200 630" width="1200" height="630">
  <defs>
    <radialGradient id="bgGlow" cx="20%" cy="20%" r="70%">
      <stop offset="0%" stop-color="#2bff88" stop-opacity="0.22" />
      <stop offset="60%" stop-color="#ffd93d" stop-opacity="0.08" />
      <stop offset="100%" stop-color="#04140a" stop-opacity="1" />
    </radialGradient>
    <linearGradient id="textGrad" x1="0%" y1="0%" x2="100%" y2="0%">
      <stop offset="0%" stop-color="#2bff88" />
      <stop offset="50%" stop-color="#ffd93d" />
      <stop offset="100%" stop-color="#21c7ff" />
    </linearGradient>
    <filter id="shadow" x="-10%" y="-10%" width="120%" height="120%">
      <feDropShadow dx="0" dy="8" stdDeviation="16" flood-color="#000000" flood-opacity="0.6"/>
    </filter>
  </defs>

  <!-- Background -->
  <rect width="1200" height="630" fill="#04140a"/>
  <rect width="1200" height="630" fill="url(#bgGlow)"/>

  <!-- Subtle Grid Lines -->
  <g opacity="0.08" stroke="#ffffff" stroke-width="1">
    <line x1="0" y1="105" x2="1200" y2="105"/>
    <line x1="0" y1="210" x2="1200" y2="210"/>
    <line x1="0" y1="315" x2="1200" y2="315"/>
    <line x1="0" y1="420" x2="1200" y2="420"/>
    <line x1="0" y1="525" x2="1200" y2="525"/>
    <line x1="200" y1="0" x2="200" y2="630"/>
    <line x1="400" y1="0" x2="400" y2="630"/>
    <line x1="600" y1="0" x2="600" y2="630"/>
    <line x1="800" y1="0" x2="800" y2="630"/>
    <line x1="1000" y1="0" x2="1000" y2="630"/>
  </g>

  <!-- Brand Pill -->
  <g transform="translate(80, 70)">
    <rect width="160" height="38" rx="19" fill="rgba(255,255,255,0.08)" stroke="rgba(255,255,255,0.18)" stroke-width="1"/>
    <circle cx="24" cy="19" r="6" fill="#2bff88"/>
    <text x="42" y="24" fill="#ffffff" font-family="-apple-system, system-ui, sans-serif" font-weight="800" font-size="15" letter-spacing="1">KREEDA</text>
  </g>

  <!-- Genre Tag -->
  <g transform="translate(260, 70)">
    <rect width="200" height="38" rx="19" fill="rgba(255,255,255,0.05)" stroke="rgba(255,255,255,0.12)" stroke-width="1"/>
    <text x="18" y="24" fill="#a6a6b8" font-family="-apple-system, system-ui, sans-serif" font-weight="600" font-size="14">World Cup 2026 Arcade Football</text>
  </g>

  <!-- Game Title -->
  <text x="80" y="220" fill="url(#textGrad)" font-family="-apple-system, system-ui, sans-serif" font-weight="900" font-size="76" letter-spacing="-1" filter="url(#shadow)">Last 16</text>

  <!-- Tagline -->
  <text x="80" y="280" fill="#f4f4f8" font-family="-apple-system, system-ui, sans-serif" font-weight="700" font-size="28" letter-spacing="0">16 nations. 4 real stars each. Lift the trophy.</text>

  <!-- Feature Highlights Box -->
  <g transform="translate(80, 330)">
    <rect width="1040" height="150" rx="18" fill="rgba(18,18,28,0.7)" stroke="rgba(255,255,255,0.12)" stroke-width="1"/>
    
    <g transform="translate(30, 42)">
      <circle cx="10" cy="0" r="4" fill="#2bff88"/>
      <text x="24" y="5" fill="#f4f4f8" font-family="-apple-system, system-ui, sans-serif" font-weight="600" font-size="18">0.1s Instant Play — No Downloads, No Accounts, 100% Free</text>
    </g>

    <g transform="translate(30, 82)">
      <circle cx="10" cy="0" r="4" fill="#2bff88"/>
      <text x="24" y="5" fill="#a6a6b8" font-family="-apple-system, system-ui, sans-serif" font-weight="500" font-size="17">16 real national teams with authentic kits and 4 star players with unique PAC/SHO/PAS/DEF/PHY stats</text>
    </g>

    <g transform="translate(30, 122)">
      <circle cx="10" cy="0" r="4" fill="#2bff88"/>
      <text x="24" y="5" fill="#a6a6b8" font-family="-apple-system, system-ui, sans-serif" font-weight="500" font-size="17">Dynamic pitch radar canvas and flocking AI team positioning</text>
    </g>
  </g>

  <!-- Footer Play CTA -->
  <g transform="translate(80, 530)">
    <rect width="220" height="52" rx="26" fill="#2bff88"/>
    <text x="45" y="32" fill="#07070d" font-family="-apple-system, system-ui, sans-serif" font-weight="800" font-size="18" letter-spacing="0.5">PLAY INSTANTLY ➔</text>
  </g>

  <text x="330" y="563" fill="#a6a6b8" font-family="-apple-system, system-ui, sans-serif" font-weight="600" font-size="18">https://kreeda.games/last-16/index.html</text>
</svg>